<?xml version="1.0" standalone="no"?>
<!DOCTYPE svg PUBLIC "-//W3C//DTD SVG 20010904//EN"
 "http://www.w3.org/TR/2001/REC-SVG-20010904/DTD/svg10.dtd">
<svg version="1.0" xmlns="http://www.w3.org/2000/svg"
 width="400.000000pt" height="400.000000pt" viewBox="0 0 400.000000 400.000000"
 preserveAspectRatio="xMidYMid meet">
<metadata>
Created by potrace 1.11, written by Peter Selinger 2001-2013
</metadata>
<g transform="translate(0.000000,400.000000) scale(0.100000,-0.100000)"
fill="#000000" stroke="none">
<path d="M1790 3983 c-329 -19 -672 -100 -895 -210 -167 -83 -342 -230 -409
-345 -69 -118 -126 -834 -96 -1216 6 -90 10 -165 8 -167 -2 -2 -84 0 -183 6
-166 9 -180 8 -196 -8 -16 -17 -15 -43 16 -466 26 -360 35 -452 48 -464 14
-14 40 -14 264 1 136 9 260 16 275 16 25 0 33 -10 77 -97 231 -461 650 -835
1106 -989 58 -20 107 -28 180 -31 94 -5 107 -3 211 31 450 146 861 509 1106
976 25 47 47 91 49 99 5 13 43 12 278 -3 248 -17 274 -17 289 -3 12 13 22 101
48 463 17 246 30 453 27 460 -8 23 -34 24 -213 14 -95 -5 -174 -9 -176 -7 -1
1 2 43 8 92 16 145 12 597 -6 785 -29 290 -55 450 -83 502 -63 117 -237 264
-416 351 -331 162 -817 239 -1317 210z m450 -153 c480 -35 848 -162 1054 -365
86 -85 104 -119 121 -221 62 -392 77 -901 35 -1192 -5 -37 -10 -73 -10 -79 0
-12 -41 -18 -51 -8 -3 2 1 51 8 107 7 57 16 191 19 299 6 175 5 196 -9 202
-14 5 -15 2 -7 -18 5 -14 6 -25 1 -25 -11 0 -9 -19 3 -39 7 -10 3 -12 -14 -6
-15 5 -20 4 -16 -4 4 -6 14 -11 22 -11 8 0 14 -4 14 -10 0 -5 -7 -7 -15 -4
-11 5 -13 2 -8 -12 5 -14 3 -16 -12 -10 -18 6 -18 6 -2 -12 16 -18 16 -18 -16
-16 l-32 3 28 -11 c39 -17 34 -23 -21 -25 -41 -1 -45 0 -29 12 15 11 15 13 2
18 -9 4 -12 13 -8 23 4 11 3 15 -5 10 -6 -3 -14 -1 -17 5 -4 6 3 13 16 17 l24
6 -23 5 -23 6 21 23 c26 27 21 38 -10 22 -28 -15 -41 -3 -16 16 17 12 18 14 3
14 -22 0 -21 8 1 33 9 11 11 17 5 13 -16 -9 -17 6 -1 22 9 9 9 12 -3 12 -20 0
-21 30 -2 52 13 15 13 16 -6 11 -12 -3 -21 -1 -21 6 0 6 6 11 13 11 8 0 9 3 1
8 -6 4 -16 16 -22 27 -11 19 -11 18 -12 -8 0 -16 -4 -26 -10 -22 -5 3 -10 2
-10 -4 0 -5 4 -12 9 -16 15 -9 -9 -65 -27 -65 -13 0 -11 -4 6 -16 28 -19 29
-38 2 -31 -17 4 -20 2 -14 -15 5 -17 3 -20 -12 -14 -16 6 -16 5 2 -15 l19 -22
-25 7 c-24 7 -24 7 4 -17 l30 -24 -37 -14 c-31 -11 -36 -16 -30 -37 3 -15 1
-27 -8 -33 -11 -7 -11 -9 -1 -9 10 0 8 -5 -4 -17 -13 -13 -19 -14 -22 -5 -2 6
-11 12 -20 13 -14 0 -13 2 3 10 16 8 14 9 -11 6 -39 -4 -36 18 4 28 26 6 26 7
-13 24 l-40 18 30 17 c29 16 29 17 4 12 -20 -4 -26 -2 -26 12 0 9 5 23 11 31
9 12 8 12 -11 2 -27 -14 -30 -5 -6 21 12 13 13 18 3 18 -7 0 -10 3 -7 7 4 3
-1 12 -11 19 -14 11 -14 15 -4 22 11 8 11 10 -2 15 -9 4 -16 14 -16 24 0 15
-2 15 -14 -3 -10 -14 -11 -21 -3 -26 6 -4 8 -10 4 -14 -4 -4 -15 0 -25 9 -18
16 -20 16 -37 -3 -10 -11 -25 -20 -34 -20 -12 0 -13 -2 -3 -9 10 -6 7 -15 -13
-39 -15 -18 -24 -38 -22 -44 4 -9 6 -8 7 2 0 8 18 35 39 59 27 32 43 42 55 38
16 -6 16 -8 1 -23 -15 -15 -14 -17 2 -31 17 -13 17 -14 -4 -8 -12 3 -24 1 -28
-4 -3 -6 0 -8 8 -6 7 3 22 -4 33 -16 18 -22 18 -22 0 -15 -16 5 -17 4 -6 -9
17 -21 7 -29 -19 -15 -13 7 -21 7 -21 1 0 -6 10 -16 22 -22 15 -8 18 -14 10
-17 -10 -3 -10 -7 0 -19 11 -14 10 -15 -12 -9 -24 7 -24 6 -6 -8 19 -15 19
-16 -10 -17 l-29 0 25 -11 c24 -10 24 -10 5 -18 -11 -5 -14 -9 -7 -9 7 -1 10
-6 7 -11 -4 -6 -14 -10 -23 -8 -10 1 -23 -1 -29 -5 -28 -18 -34 6 -6 25 24 17
25 19 6 15 -13 -3 -23 -1 -23 4 0 5 5 9 12 9 6 0 1 9 -12 20 -21 18 -22 22 -8
38 22 25 31 43 21 41 -21 -4 -33 2 -33 16 0 8 -5 15 -11 15 -8 0 -9 12 -4 37
6 31 4 35 -8 25 -7 -7 -17 -9 -20 -5 -4 3 2 12 13 20 23 16 26 40 5 40 -8 0
-12 -4 -9 -8 2 -4 0 -10 -6 -14 -18 -11 -22 43 -6 77 10 18 11 27 4 20 -16
-16 -29 -16 -27 1 1 6 0 26 -1 42 l-2 30 -9 -32 c-5 -18 -14 -33 -20 -33 -7 0
-4 -10 5 -25 16 -24 16 -25 -4 -25 -12 0 -18 -4 -15 -10 4 -6 1 -18 -6 -26
-10 -12 -9 -13 5 -8 19 7 23 -21 4 -29 -10 -4 -9 -8 2 -16 18 -13 1 -14 -19
-2 -8 5 -10 14 -6 22 12 21 -7 0 -38 -43 -15 -20 -27 -40 -27 -44 0 -4 7 1 15
12 11 14 15 16 15 4 0 -12 3 -11 11 3 5 9 7 22 4 27 -9 14 19 12 33 -2 14 -14
16 -52 2 -43 -5 3 -10 0 -10 -9 0 -8 4 -16 9 -18 4 -1 12 -14 16 -26 6 -21 4
-23 -14 -17 -16 5 -20 3 -15 -9 3 -9 11 -16 18 -16 6 0 5 -4 -4 -9 -17 -12
-33 -4 -24 11 4 7 2 8 -4 4 -18 -11 -15 -85 3 -92 21 -9 19 -27 -2 -20 -15 5
-14 3 2 -9 12 -10 16 -19 10 -23 -6 -4 -12 -16 -13 -27 -2 -11 -8 -21 -12 -23
-5 -2 -6 -10 -3 -18 3 -8 0 -14 -6 -14 -6 0 -11 5 -11 10 0 7 -6 7 -19 0 -29
-15 -50 -12 -28 4 23 18 22 36 -3 36 -25 0 -25 8 -2 33 16 19 16 19 -5 13 -34
-11 -28 10 7 24 35 15 34 10 15 46 -8 16 -15 23 -15 17 0 -7 -7 -13 -17 -13
-14 0 -14 2 2 20 18 20 18 21 0 14 -15 -6 -17 -4 -12 9 3 9 2 17 -4 17 -5 0
-9 6 -8 13 3 28 -2 48 -11 42 -6 -4 -7 -11 -4 -17 4 -6 1 -9 -7 -6 -8 3 -13
13 -11 22 3 15 2 15 -17 -1 -16 -13 -18 -20 -8 -32 10 -12 8 -14 -10 -9 -27 7
-30 0 -7 -16 17 -13 9 -50 -10 -39 -6 3 -6 1 2 -8 6 -7 12 -17 12 -22 0 -4 -6
-5 -12 -1 -7 4 -6 -1 3 -12 15 -18 24 -64 13 -64 -3 0 -14 5 -26 11 -30 16
-36 0 -8 -21 l25 -20 -23 0 c-24 0 -39 27 -49 87 -4 25 -8 29 -18 20 -7 -7
-11 -15 -8 -20 7 -12 -7 -45 -22 -50 -9 -4 -12 0 -10 14 2 10 0 19 -6 19 -17
0 -9 30 9 31 9 0 12 3 5 5 -34 14 -76 -43 -53 -71 7 -8 8 -15 3 -15 -18 0 -33
24 -33 52 0 15 -9 54 -19 85 -11 32 -22 76 -26 97 -3 21 -13 49 -21 62 -9 12
-17 40 -20 61 -3 21 -10 52 -16 70 -8 23 -9 35 -1 45 6 7 14 30 18 51 8 42 15
46 32 18 8 -13 23 -18 52 -18 32 0 46 6 69 31 72 76 110 211 62 223 -13 4 -20
14 -20 30 0 14 4 22 10 18 10 -6 -33 43 -100 115 -14 15 -32 29 -40 32 -13 5
-12 8 4 20 18 15 18 15 -2 29 -11 8 -20 23 -19 33 1 11 -4 21 -12 24 -10 3
-12 0 -8 -12 4 -10 1 -16 -7 -16 -13 0 -65 71 -95 127 -10 19 -15 21 -31 11
-17 -11 -17 -14 -4 -41 19 -36 13 -44 -11 -17 -10 11 -24 20 -32 20 -17 0 -16
5 3 35 22 34 11 61 -52 123 -36 35 -65 55 -87 59 -29 4 -35 1 -57 -34 -15 -22
-35 -39 -47 -41 -29 -4 -52 -37 -46 -63 6 -23 55 -65 99 -86 41 -20 67 -73 54
-109 -6 -14 -10 -41 -10 -60 0 -22 -4 -33 -12 -32 -9 2 -12 -9 -10 -37 2 -22
3 -82 3 -133 -1 -85 -4 -97 -28 -130 -15 -21 -28 -39 -30 -41 -11 -16 -9 17 6
97 10 50 16 92 13 92 -2 0 1 6 7 14 9 10 3 10 -22 -3 -19 -9 -30 -19 -24 -22
16 -11 -13 -180 -32 -187 -25 -8 -51 -34 -51 -49 0 -7 9 -22 20 -33 19 -19 20
-25 9 -83 -7 -34 -16 -65 -22 -68 -6 -4 -5 -9 1 -13 6 -3 -2 -60 -20 -148 -33
-159 -36 -173 -38 -173 -1 0 -3 -11 -6 -25 -7 -42 -13 -50 -31 -44 -16 5 -16
4 1 -10 18 -15 18 -16 2 -16 -9 0 -14 -4 -11 -10 3 -5 1 -10 -4 -10 -6 0 -11
12 -11 28 0 40 -16 61 -22 28 -3 -14 -1 -29 5 -35 5 -5 6 -14 3 -20 -9 -14
-36 -14 -36 -1 0 6 -9 10 -21 10 -11 0 -17 5 -14 10 4 6 11 8 16 5 5 -4 9 1 9
10 0 12 -6 15 -21 10 -15 -5 -19 -4 -14 5 4 7 20 10 38 7 l30 -4 -32 27 c-29
23 -31 27 -17 39 22 18 20 34 -3 28 -14 -3 -18 -1 -14 10 3 8 0 18 -7 23 -9 6
-9 12 -1 29 9 16 9 21 0 21 -6 0 -9 7 -5 15 4 12 0 14 -19 9 -19 -5 -25 -2
-25 9 0 9 5 19 11 22 6 5 4 11 -7 19 -11 9 -14 18 -9 27 5 8 -1 5 -13 -5 -17
-15 -19 -22 -11 -33 9 -10 8 -13 -6 -13 -14 0 -15 -3 -6 -14 10 -11 9 -20 -1
-38 -14 -25 -50 -35 -41 -12 3 9 -2 14 -16 14 -25 0 -39 26 -22 43 16 16 14
27 -4 21 -11 -5 -14 -2 -9 12 4 11 12 25 18 33 9 12 7 13 -8 8 -13 -5 -17 -3
-13 7 3 7 1 18 -5 24 -8 8 -8 15 -1 24 5 7 13 21 16 31 6 15 3 17 -13 12 -23
-7 -27 7 -6 24 12 10 12 16 0 39 -8 15 -14 34 -14 42 -1 12 -3 11 -11 -3 -5
-9 -8 -21 -4 -26 3 -5 -1 -15 -8 -23 -12 -12 -12 -23 -5 -83 2 -14 -2 -20 -15
-18 -12 0 -16 -4 -13 -13 3 -8 9 -21 13 -31 5 -12 3 -14 -7 -8 -10 6 -11 2 -6
-18 5 -21 3 -25 -9 -21 -8 4 -15 3 -15 0 0 -4 10 -11 23 -16 17 -7 18 -9 5 -9
-10 -1 -18 -8 -18 -16 0 -10 -6 -12 -17 -8 -16 6 -16 4 -5 -9 12 -15 10 -17
-17 -16 -16 1 -29 6 -28 11 1 6 -9 13 -23 17 -25 6 -25 6 9 23 41 21 38 20 44
2 4 -11 4 -10 3 2 -2 19 -24 22 -61 9 -18 -7 -17 -5 3 13 29 25 21 41 -16 36
-15 -2 -21 -2 -14 1 6 3 12 12 12 20 0 9 -5 12 -12 8 -6 -4 1 10 17 30 28 37
28 39 11 52 -11 7 -24 15 -30 17 -7 3 -3 13 9 27 l20 23 -23 -6 c-20 -5 -21
-3 -10 10 10 12 9 17 -5 28 -9 7 -17 17 -17 24 0 6 -4 11 -10 11 -5 0 -10 -11
-10 -25 0 -14 -4 -25 -10 -25 -14 0 -13 -27 2 -32 22 -8 -3 -29 -25 -22 -22 7
-22 7 -3 -15 20 -22 20 -22 0 -15 -16 6 -16 4 5 -19 26 -29 22 -49 -5 -26 -15
12 -16 11 -10 -9 6 -17 3 -22 -11 -22 -17 -1 -17 -2 2 -16 20 -16 20 -16 -2
-9 -31 9 -29 -5 4 -31 l27 -21 -37 -12 c-31 -10 -36 -16 -32 -34 7 -29 -8 -52
-26 -41 -8 5 -22 7 -31 6 -27 -5 -22 7 8 18 27 11 24 30 -4 30 -9 0 -24 4 -31
9 -12 8 -10 12 12 22 29 13 38 35 11 25 -15 -6 -15 -4 -3 10 12 15 11 16 -11
9 -20 -6 -23 -5 -12 6 16 17 16 37 0 21 -21 -21 -32 -13 -13 8 24 27 29 54 8
46 -23 -9 -36 3 -22 21 10 12 10 16 -2 23 -8 5 -15 14 -15 20 -1 5 -2 12 -3
15 0 3 -11 -4 -23 -15 -20 -18 -21 -22 -8 -31 12 -9 10 -10 -7 -6 -27 6 -30
-8 -5 -22 15 -10 15 -11 -5 -17 -28 -8 -28 -13 -5 -30 16 -13 16 -14 -3 -8
-18 5 -18 4 3 -14 26 -24 28 -34 5 -25 -16 6 -16 5 -4 -11 13 -16 12 -17 -12
-11 -33 9 -35 -7 -5 -28 23 -15 23 -15 -7 -10 -34 6 -25 -12 10 -20 17 -4 17
-5 -4 -6 -19 -1 -21 -4 -12 -15 10 -12 5 -14 -28 -13 -32 2 -37 4 -28 16 10
11 8 13 -11 6 -24 -7 -24 -7 -6 20 17 26 17 28 -3 44 -29 23 -43 54 -32 72 14
22 11 33 -6 19 -20 -16 -19 -6 1 25 17 26 16 29 -10 19 -27 -10 -21 -355 10
-612 l7 -54 -29 4 c-29 3 -29 3 -42 108 -21 162 -20 686 1 880 35 318 45 369
85 428 98 147 309 277 577 359 274 82 674 119 1025 93z m-378 -1098 c-11 -37
-25 -88 -32 -114 l-12 -46 -37 20 c-20 10 -28 13 -17 6 57 -40 59 -43 46 -68
-8 -14 -10 -40 -6 -69 6 -48 -16 -153 -33 -159 -6 -2 -7 -10 -4 -18 9 -25 -7
-84 -23 -84 -11 0 -13 4 -5 17 7 13 4 20 -12 28 -12 7 -21 17 -19 24 1 7 -3
19 -9 27 -9 11 -8 18 1 29 9 10 9 15 1 15 -22 0 -13 60 52 344 20 87 26 100
49 110 15 6 37 24 50 41 l23 30 3 -34 c2 -18 -5 -63 -16 -99z m-747 -121 c-3
-6 -11 -11 -17 -11 -6 0 -6 6 2 15 14 17 26 13 15 -4z m920 -133 c9 -29 28
-81 41 -116 24 -60 29 -150 10 -169 -3 -3 -6 -14 -6 -24 0 -9 -7 -20 -16 -23
-22 -8 -24 -8 -24 8 0 7 -7 19 -16 27 -8 7 -14 20 -11 29 2 8 -2 21 -10 28
-10 10 -13 10 -13 -3 0 -8 -7 -15 -15 -15 -21 0 -19 -20 3 -21 11 0 12 -2 4
-6 -7 -3 -20 1 -29 9 -15 12 -15 11 -5 -8 9 -16 8 -26 -3 -40 -7 -10 -17 -16
-21 -12 -4 4 -1 14 6 23 7 8 8 15 3 15 -14 0 -13 35 3 113 8 40 16 90 19 112
5 39 44 125 57 125 3 0 14 -24 23 -52z m1165 -29 c0 -5 -9 -9 -20 -9 -22 0
-27 16 -7 23 15 5 27 -1 27 -14z m-2180 1 c0 -5 -7 -7 -15 -4 -8 4 -15 8 -15
10 0 2 7 4 15 4 8 0 15 -4 15 -10z m-160 -10 c0 -5 -7 -10 -16 -10 -8 0 -12 5
-9 10 3 6 10 10 16 10 5 0 9 -4 9 -10z m2180 0 c0 -5 -9 -10 -20 -10 -11 0
-20 5 -20 10 0 6 9 10 20 10 11 0 20 -4 20 -10z m-510 -21 c0 -5 -4 -9 -10 -9
-5 0 -10 7 -10 16 0 8 5 12 10 9 6 -3 10 -10 10 -16z m630 -5 c0 -8 -4 -12
-10 -9 -5 3 -10 10 -10 16 0 5 5 9 10 9 6 0 10 -7 10 -16z m-2430 -29 c0 -2
-14 -3 -31 -3 -17 1 -25 4 -18 8 10 7 49 2 49 -5z m460 4 c12 -9 11 -10 -7 -6
-13 3 -26 1 -29 -4 -7 -12 -24 -12 -24 0 0 8 13 14 40 20 3 0 12 -4 20 -10z
m-475 -29 c3 -5 0 -10 -9 -10 -8 0 -23 -3 -33 -6 -16 -5 -16 -4 1 10 23 19 32
20 41 6z m675 0 c8 -5 12 -11 10 -14 -3 -2 -14 2 -24 10 -22 15 -10 19 14 4z
m1990 -31 c0 -5 -7 -9 -15 -9 -8 0 -15 5 -15 10 0 6 -7 10 -15 10 -8 0 -12 6
-9 15 5 12 9 12 30 -2 13 -8 24 -19 24 -24z m-2480 16 c-7 -8 -18 -15 -24 -15
-6 0 -2 7 8 15 25 19 32 19 16 0z m288 3 c20 -20 14 -27 -13 -15 -14 7 -25 15
-25 20 0 11 25 8 38 -5z m1392 -3 c-7 -9 -15 -13 -17 -11 -7 7 7 26 19 26 6 0
6 -6 -2 -15z m500 0 c0 -10 -10 -15 -27 -15 l-28 1 25 14 c31 18 30 18 30 0z
m38 -7 c-6 -18 -28 -21 -28 -4 0 9 7 16 16 16 9 0 14 -5 12 -12z m-2378 -24
c0 -2 -9 -4 -20 -4 -11 0 -20 4 -20 9 0 5 9 7 20 4 11 -3 20 -7 20 -9z m668
-3 c3 -8 -1 -12 -9 -9 -7 2 -15 10 -17 17 -3 8 1 12 9 9 7 -2 15 -10 17 -17z
m1496 13 c9 -3 14 -10 11 -14 -6 -10 -55 0 -55 11 0 10 21 12 44 3z m266 -4
c0 -5 -5 -10 -11 -10 -5 0 -7 5 -4 10 3 6 8 10 11 10 2 0 4 -4 4 -10z m-330
-10 c0 -5 -5 -10 -11 -10 -5 0 -7 5 -4 10 3 6 8 10 11 10 2 0 4 -4 4 -10z m55
-30 c8 -13 -5 -13 -25 0 -13 8 -13 10 2 10 9 0 20 -4 23 -10z m186 -15 c0 -6
-10 -12 -23 -13 -19 -4 -20 -2 -9 12 15 17 33 18 32 1z m-2174 -1 c-3 -3 -12
-4 -19 -1 -8 3 -5 6 6 6 11 1 17 -2 13 -5z m1383 -30 c0 -8 -4 -12 -10 -9 -5
3 -10 13 -10 21 0 8 5 12 10 9 6 -3 10 -13 10 -21z m-610 2 c0 -3 -4 -8 -10
-11 -5 -3 -10 -1 -10 4 0 6 5 11 10 11 6 0 10 -2 10 -4z m774 -5 c3 -5 -5 -8
-19 -7 -14 0 -25 4 -25 9 0 10 38 9 44 -2z m626 -11 c0 -5 -5 -10 -11 -10 -5
0 -7 5 -4 10 3 6 8 10 11 10 2 0 4 -4 4 -10z m-449 -35 c0 -6 -10 -12 -22 -13
-19 -3 -20 -2 -8 12 15 16 31 17 30 1z m-1006 -35 c-3 -5 -10 -10 -16 -10 -5
0 -9 5 -9 10 0 6 7 10 16 10 8 0 12 -4 9 -10z m-55 -10 c0 -5 -4 -10 -10 -10
-5 0 -10 5 -10 10 0 6 5 10 10 10 6 0 10 -4 10 -10z m90 3 c0 -5 -5 -15 -10
-23 -8 -12 -10 -11 -10 8 0 12 5 22 10 22 6 0 10 -3 10 -7z m-40 -23 c0 -5 -7
-10 -15 -10 -8 0 -15 5 -15 10 0 6 7 10 15 10 8 0 15 -4 15 -10z m1000 -10
c-8 -5 -17 -7 -19 -4 -3 3 1 9 9 14 8 5 17 7 19 4 3 -3 -1 -9 -9 -14z m-680
-20 c0 -11 -4 -20 -10 -20 -5 0 -11 -39 -12 -87 -3 -74 -6 -88 -20 -91 -16 -3
-18 6 -18 87 0 74 -3 91 -15 91 -8 0 -15 9 -15 20 0 17 7 20 45 20 38 0 45 -3
45 -20z m50 -19 c0 -22 5 -43 10 -46 6 -4 10 12 10 39 0 40 3 46 20 46 20 0
21 -5 18 -107 -3 -93 -5 -108 -20 -111 -15 -3 -18 4 -18 48 0 32 -4 49 -10 45
-5 -3 -10 -26 -10 -51 0 -38 -3 -45 -17 -42 -15 3 -18 17 -21 97 -3 104 0 121
23 121 11 0 15 -11 15 -39z m160 19 c0 -13 -7 -20 -20 -20 -13 0 -20 -7 -20
-19 0 -10 9 -21 20 -24 11 -3 20 -10 20 -17 0 -7 -9 -14 -20 -17 -27 -7 -29
-65 -2 -61 11 2 17 -3 17 -17 0 -16 -7 -20 -35 -20 l-35 0 -3 108 -3 107 41 0
c33 0 40 -3 40 -20z m-355 -80 c0 -10 -13 -16 -42 -18 -38 -3 -43 -1 -43 18 0
19 5 21 43 18 29 -2 42 -8 42 -18z m485 0 c0 -17 -7 -20 -40 -20 -33 0 -40 3
-40 20 0 17 7 20 40 20 33 0 40 -3 40 -20z m-1950 -275 c0 -98 1 -105 20 -105
18 0 20 8 22 103 l3 102 40 0 40 0 3 -253 2 -253 -42 3 -43 3 -3 108 c-2 99
-4 107 -22 107 -19 0 -20 -7 -20 -110 l0 -109 -34 -7 c-19 -3 -39 -3 -45 1 -7
4 -11 91 -11 261 l0 254 45 0 45 0 0 -105z m3369 90 c41 -21 54 -61 50 -154
-3 -67 -8 -83 -28 -104 l-23 -25 31 -100 c17 -55 31 -106 31 -112 0 -9 -12
-11 -41 -7 -22 3 -43 8 -46 11 -3 2 -16 40 -28 83 l-24 78 0 -82 -1 -83 -45 0
-45 0 0 249 c0 282 -8 258 88 260 29 0 66 -6 81 -14z m-2972 -8 c9 -9 64 -458
57 -469 -3 -4 -22 -8 -43 -8 -47 0 -47 1 -57 205 -8 162 -18 148 -28 -44 -4
-73 -10 -139 -13 -147 -3 -9 -21 -14 -49 -14 -42 0 -43 1 -39 28 3 15 14 110
25 212 12 102 24 200 27 219 l6 33 53 -4 c30 -3 57 -8 61 -11z m2706 -24 c-1
-18 -2 -37 -2 -43 -1 -5 -21 -10 -46 -10 l-45 0 0 -45 0 -45 40 0 40 0 0 -45
0 -45 -40 0 -40 0 0 -69 0 -70 47 -3 c46 -3 47 -3 47 -38 l0 -35 -90 0 -89 0
-3 237 -2 237 27 4 c16 2 57 4 92 3 l65 -1 -1 -32z m-2385 7 c43 -26 55 -60
50 -144 -3 -60 -7 -71 -31 -92 -18 -15 -41 -24 -63 -24 l-34 0 0 -95 0 -95
-45 0 -45 0 0 235 0 235 68 0 c49 0 76 -5 100 -20z m2093 -9 c27 -28 29 -34
29 -114 0 -83 -1 -86 -31 -111 -20 -17 -43 -26 -65 -26 l-34 0 0 -96 0 -95
-42 3 -43 3 -3 220 c-1 121 0 225 2 232 4 9 29 13 81 13 71 0 79 -2 106 -29z
m-1802 5 c15 -8 32 -26 39 -41 14 -31 16 -124 2 -159 -10 -29 -57 -56 -95 -56
-25 0 -25 0 -25 -89 l0 -89 -41 -4 c-22 -2 -42 -2 -45 1 -2 2 -4 105 -4 228
l0 223 70 0 c42 0 82 -6 99 -14z m188 2 c6 -7 16 -44 24 -83 l13 -70 14 78 14
77 49 0 c27 0 49 -3 49 -7 0 -5 -18 -64 -40 -133 -34 -106 -40 -138 -40 -212
l0 -88 -45 0 -45 0 0 84 c0 72 -6 104 -44 220 -24 74 -41 138 -38 141 11 10
80 5 89 -7z m611 -23 c18 -21 22 -37 20 -69 -3 -40 -4 -41 -45 -44 l-42 -3 -3
38 c-2 26 -8 38 -18 38 -13 0 -15 -23 -15 -150 0 -135 2 -150 18 -153 15 -3
17 5 17 54 l0 57 31 -7 c17 -3 38 -6 45 -6 10 0 14 -16 14 -59 0 -54 -3 -62
-31 -85 -24 -20 -41 -26 -81 -26 -41 0 -54 5 -79 29 l-29 29 0 162 c0 96 4
169 11 181 29 54 145 63 187 14z m306 -174 c34 -259 36 -243 -16 -239 l-43 3
-7 65 c-3 36 -10 106 -14 155 l-8 90 -13 -145 c-7 -80 -15 -151 -18 -157 -6
-17 -85 -17 -85 -1 0 21 50 402 55 415 4 12 103 23 117 13 4 -3 18 -92 32
-199z m214 175 c6 -18 18 -68 28 -110 10 -42 20 -76 23 -76 3 0 17 48 31 108
l25 107 45 0 45 0 3 -219 c1 -121 -1 -223 -6 -228 -5 -5 -27 -6 -50 -2 l-41 6
-3 92 -3 91 -19 -72 c-11 -40 -23 -73 -26 -73 -4 0 -16 33 -28 73 l-20 72 -1
-93 -1 -93 -47 3 -48 3 -3 210 c-1 115 0 215 2 222 3 8 22 13 45 13 37 0 41
-3 49 -34z m-1323 -522 c20 -20 16 -48 -9 -52 -14 -3 -17 1 -12 16 4 11 2 23
-4 27 -34 21 -85 -108 -61 -153 23 -42 65 -25 75 30 9 48 38 68 97 68 l47 0
-13 -55 c-7 -31 -9 -58 -4 -60 7 -5 22 38 31 90 3 16 12 21 51 23 62 4 81 -10
72 -56 -3 -18 -9 -40 -12 -48 -3 -8 -1 -14 5 -14 5 0 15 27 21 60 l12 59 57
-2 c54 -2 57 -3 63 -32 4 -16 7 -22 8 -13 2 27 42 48 92 48 l47 0 -13 -55 c-7
-31 -9 -58 -4 -60 11 -8 15 2 34 93 17 76 20 82 43 82 22 0 24 -3 19 -30 -6
-26 -4 -30 16 -30 13 0 28 -5 35 -12 9 -9 12 -8 12 5 0 11 8 17 25 17 28 0 29
-4 14 -65 -13 -52 -7 -82 10 -45 6 14 15 32 21 40 5 8 14 27 20 43 16 44 45
36 59 -17 25 -100 13 -115 -93 -114 -60 0 -69 3 -74 21 -4 17 -7 18 -16 5 -20
-28 -53 -39 -81 -28 -17 7 -33 7 -45 0 -20 -11 -50 -4 -50 12 0 7 -5 7 -13 0
-7 -6 -38 -10 -68 -9 l-54 2 3 58 c2 43 -1 57 -12 57 -9 0 -16 -17 -21 -46
-10 -72 -12 -74 -65 -74 -62 0 -68 13 -43 103 3 11 -1 17 -11 17 -11 0 -19
-18 -28 -60 -11 -56 -14 -60 -39 -60 -15 0 -34 -3 -42 -6 -8 -3 -21 2 -30 11
-9 8 -18 11 -21 7 -3 -5 -41 -9 -85 -10 -72 -1 -82 1 -96 21 -30 43 -12 152
32 187 31 24 76 26 98 4z m1135 12 c0 -8 -41 -202 -46 -218 -3 -11 -15 -18
-30 -18 -26 0 -26 -1 -4 87 7 26 5 32 -11 36 -14 4 -22 -4 -34 -37 -9 -22 -17
-56 -18 -73 -1 -24 -7 -33 -20 -33 -26 0 -32 29 -15 74 32 85 32 83 10 57 -18
-22 -42 -22 -42 -1 0 15 31 40 51 40 10 0 37 20 60 45 31 33 49 45 70 45 16 0
29 -2 29 -4z m-372 -34 c3 -16 -2 -22 -17 -22 -24 0 -35 15 -27 36 9 23 40 13
44 -14z m-1200 -119 c89 -159 174 -273 297 -401 181 -188 380 -323 617 -420
172 -70 218 -69 408 11 273 115 517 300 704 533 69 86 156 221 228 353 12 22
24 31 43 31 14 0 25 -2 25 -5 0 -11 -74 -153 -113 -215 -228 -367 -587 -662
-947 -780 -126 -41 -191 -40 -325 4 -340 114 -671 379 -897 717 -64 96 -148
248 -148 268 0 6 11 11 24 11 20 0 34 -18 84 -107z m1686 55 l16 -22 0 22 c0
20 5 22 49 22 60 0 76 -16 68 -66 -9 -54 -32 -84 -66 -84 -25 0 -30 -5 -35
-34 -6 -31 -21 -46 -48 -46 -10 0 -7 25 9 100 l5 25 -16 -22 c-11 -15 -28 -23
-45 -23 -25 0 -30 -5 -35 -34 -6 -32 -38 -58 -52 -43 -3 3 5 55 17 116 l22
111 48 0 c38 0 51 -5 63 -22z m-569 -270 c4 -24 10 -47 14 -53 9 -12 29 -80
34 -118 5 -34 -14 -121 -37 -165 -10 -19 -16 -40 -14 -49 2 -11 7 -7 17 13 39
84 58 117 81 138 31 29 180 108 180 96 0 -5 -5 -12 -11 -16 -6 -3 -23 -34 -38
-68 -33 -71 -81 -118 -159 -153 -66 -29 -65 -39 1 -15 44 16 50 16 96 -1 27
-9 57 -17 67 -17 27 0 5 -15 -42 -28 -55 -16 -103 -15 -153 3 l-42 15 33 -42
c31 -40 25 -44 -14 -10 -17 14 -18 13 -18 -11 0 -15 -4 -27 -10 -27 -5 0 -10
12 -10 27 0 24 -1 25 -17 11 -40 -34 -46 -30 -14 10 l33 43 -41 -17 c-27 -11
-56 -14 -88 -11 -66 8 -113 18 -113 26 0 3 27 15 61 25 59 19 63 19 111 2 63
-22 79 -12 59 37 -48 120 -54 195 -21 272 11 26 23 64 26 86 8 51 20 50 29 -3z
m-125 -234 c14 -13 36 -45 49 -71 13 -26 28 -56 33 -66 15 -31 3 -30 -64 1
-77 37 -103 65 -156 164 l-40 76 76 -40 c43 -23 88 -51 102 -64z"/>
<path d="M2358 3363 c6 -2 18 -2 25 0 6 3 1 5 -13 5 -14 0 -19 -2 -12 -5z"/>
<path d="M2248 3353 c6 -2 18 -2 25 0 6 3 1 5 -13 5 -14 0 -19 -2 -12 -5z"/>
<path d="M2448 3353 c7 -3 16 -2 19 1 4 3 -2 6 -13 5 -11 0 -14 -3 -6 -6z"/>
<path d="M2548 3333 c7 -3 16 -2 19 1 4 3 -2 6 -13 5 -11 0 -14 -3 -6 -6z"/>
<path d="M2642 3323 c37 -2 100 -2 140 0 40 1 10 3 -67 3 -77 0 -110 -1 -73
-3z"/>
<path d="M2498 3303 c18 -2 45 -2 60 0 15 2 0 4 -33 4 -33 0 -45 -2 -27 -4z"/>
<path d="M2365 3270 c-16 -16 -27 -31 -24 -33 2 -1 18 12 36 30 17 18 28 33
24 33 -4 0 -20 -13 -36 -30z"/>
<path d="M2598 3288 c5 -5 16 -8 23 -6 8 3 3 7 -10 11 -17 4 -21 3 -13 -5z"/>
<path d="M2938 3293 c6 -2 18 -2 25 0 6 3 1 5 -13 5 -14 0 -19 -2 -12 -5z"/>
<path d="M3030 3286 c0 -2 11 -6 25 -8 13 -3 22 -1 19 3 -5 9 -44 13 -44 5z"/>
<path d="M1779 3249 l-24 -20 30 17 c39 24 40 24 28 24 -6 0 -21 -9 -34 -21z"/>
<path d="M2554 3224 c-18 -14 -18 -14 6 -3 31 14 36 19 24 19 -6 0 -19 -7 -30
-16z"/>
<path d="M2613 3233 c9 -2 23 -2 30 0 6 3 -1 5 -18 5 -16 0 -22 -2 -12 -5z"/>
<path d="M3351 3203 c-1 -13 -6 -23 -13 -23 -6 0 -9 -3 -5 -6 13 -13 34 11 26
31 -7 19 -8 19 -8 -2z"/>
<path d="M2435 3190 c42 -11 87 -12 81 -2 -3 5 -29 9 -58 9 -44 1 -48 0 -23
-7z"/>
<path d="M2540 3189 c-13 -9 -12 -10 3 -5 9 3 30 1 45 -5 15 -6 23 -6 17 -1
-17 17 -49 22 -65 11z"/>
<path d="M2368 3183 c7 -3 16 -2 19 1 4 3 -2 6 -13 5 -11 0 -14 -3 -6 -6z"/>
<path d="M2723 3180 c9 -6 17 -18 17 -26 0 -26 -39 -72 -62 -76 -13 -2 -31
-18 -42 -38 -21 -35 -21 -35 35 13 66 57 88 91 73 115 -6 8 -17 17 -25 19 -8
3 -7 0 4 -7z"/>
<path d="M2430 3166 c-6 -8 -21 -17 -33 -19 l-22 -4 21 -2 c12 0 32 8 45 19
13 10 19 19 13 20 -6 0 -17 -6 -24 -14z"/>
<path d="M2628 3163 c7 -3 16 -2 19 1 4 3 -2 6 -13 5 -11 0 -14 -3 -6 -6z"/>
<path d="M3294 3154 c-18 -14 -18 -15 4 -4 12 6 22 13 22 15 0 8 -5 6 -26 -11z"/>
<path d="M3224 3124 c-19 -15 -19 -15 1 -6 11 5 27 12 35 15 13 5 13 6 -1 6
-8 1 -24 -6 -35 -15z"/>
<path d="M3340 3119 c-20 -15 -21 -18 -5 -12 19 6 19 5 3 -13 -9 -10 -19 -37
-22 -59 l-6 -40 14 43 c8 24 22 52 31 62 25 28 14 42 -15 19z"/>
<path d="M1718 3123 c6 -2 18 -2 25 0 6 3 1 5 -13 5 -14 0 -19 -2 -12 -5z"/>
<path d="M1668 3113 c7 -3 16 -2 19 1 4 3 -2 6 -13 5 -11 0 -14 -3 -6 -6z"/>
<path d="M2746 3095 c-11 -8 -15 -15 -9 -15 6 0 16 7 23 15 16 19 11 19 -14 0z"/>
<path d="M3170 3100 c-8 -5 -10 -10 -5 -10 6 0 17 5 25 10 8 5 11 10 5 10 -5
0 -17 -5 -25 -10z"/>
<path d="M1518 3093 c7 -3 16 -2 19 1 4 3 -2 6 -13 5 -11 0 -14 -3 -6 -6z"/>
<path d="M2825 3090 c27 -12 43 -12 25 0 -8 5 -22 9 -30 9 -10 0 -8 -3 5 -9z"/>
<path d="M1443 3083 c9 -2 23 -2 30 0 6 3 -1 5 -18 5 -16 0 -22 -2 -12 -5z"/>
<path d="M3097 3072 c-10 -10 -17 -28 -17 -40 0 -11 -4 -24 -10 -27 -5 -3 -10
-11 -10 -18 0 -6 7 -2 15 9 8 10 15 28 15 38 0 11 7 28 17 38 9 10 14 18 11
18 -3 0 -12 -8 -21 -18z"/>
<path d="M1234 3054 c-18 -14 -18 -15 4 -4 12 6 22 13 22 15 0 8 -5 6 -26 -11z"/>
<path d="M1349 3049 l-24 -20 28 17 c15 9 27 18 27 20 0 8 -8 4 -31 -17z"/>
<path d="M1648 3043 c18 -2 45 -2 60 0 15 2 0 4 -33 4 -33 0 -45 -2 -27 -4z"/>
<path d="M1552 3024 c-20 -14 -59 -74 -48 -74 3 0 13 14 21 31 9 17 31 37 48
44 18 8 25 14 17 15 -9 0 -26 -7 -38 -16z"/>
<path d="M2820 3020 c-22 -22 -26 -45 -10 -55 6 -3 7 1 4 10 -4 10 3 26 16 41
28 29 19 33 -10 4z"/>
<path d="M3286 3027 c3 -10 9 -15 12 -12 3 3 0 11 -7 18 -10 9 -11 8 -5 -6z"/>
<path d="M3120 3020 c-18 -12 -2 -12 25 0 13 6 15 9 5 9 -8 0 -22 -4 -30 -9z"/>
<path d="M3180 3020 c8 -5 20 -10 25 -10 6 0 3 5 -5 10 -8 5 -19 10 -25 10 -5
0 -3 -5 5 -10z"/>
<path d="M2473 2970 c16 -5 34 -12 41 -17 6 -4 3 0 -7 10 -11 9 -29 17 -41 16
-17 -1 -16 -2 7 -9z"/>
<path d="M2904 2958 l-19 -23 25 20 c14 11 27 21 29 22 2 2 0 3 -6 3 -5 0 -18
-10 -29 -22z"/>
<path d="M3125 2969 c-4 -5 1 -19 9 -31 9 -12 16 -17 16 -11 0 7 -4 15 -10 18
-23 14 -7 23 33 18 51 -7 47 2 -5 10 -21 3 -40 1 -43 -4z"/>
<path d="M3025 2926 c-16 -22 -35 -54 -42 -69 -7 -16 -22 -31 -33 -34 -11 -3
-20 -9 -20 -14 0 -22 51 18 72 57 13 24 26 44 30 44 5 0 8 6 8 14 0 8 5 18 12
22 8 5 9 2 5 -9 -3 -10 -2 -17 3 -17 12 0 13 20 2 36 -4 7 -18 -4 -37 -30z"/>
<path d="M1296 2945 c-9 -26 -7 -32 5 -12 6 10 9 21 6 23 -2 3 -7 -2 -11 -11z"/>
<path d="M2550 2950 c-9 -6 -10 -10 -3 -10 6 0 15 5 18 10 8 12 4 12 -15 0z"/>
<path d="M3289 2948 c17 -22 22 -22 47 -2 18 14 18 15 -4 4 -18 -9 -27 -8 -40
2 -15 12 -16 11 -3 -4z"/>
<path d="M2681 2945 c1 -19 18 -51 18 -35 0 8 -4 22 -9 30 -5 8 -9 11 -9 5z"/>
<path d="M1474 2924 c-18 -14 -18 -15 4 -4 12 6 22 13 22 15 0 8 -5 6 -26 -11z"/>
<path d="M2600 2910 c-12 -16 -19 -30 -16 -30 2 0 14 14 26 30 12 17 19 30 16
30 -2 0 -14 -13 -26 -30z"/>
<path d="M2807 2915 c-4 -8 -16 -15 -27 -15 -11 0 -20 -4 -20 -9 0 -5 9 -7 20
-4 21 6 46 31 38 39 -3 3 -8 -2 -11 -11z"/>
<path d="M2861 2898 c0 -14 -7 -29 -13 -31 -10 -4 -10 -6 0 -6 16 -1 25 22 19
46 -3 12 -5 9 -6 -9z"/>
<path d="M3209 2903 c-13 -16 -12 -17 4 -4 16 13 21 21 13 21 -2 0 -10 -8 -17
-17z"/>
<path d="M1352 2885 c-6 -14 -10 -25 -8 -25 2 0 11 11 20 25 9 14 13 25 8 25
-5 0 -14 -11 -20 -25z"/>
<path d="M1428 2903 c7 -3 16 -2 19 1 4 3 -2 6 -13 5 -11 0 -14 -3 -6 -6z"/>
<path d="M758 2883 c7 -3 16 -2 19 1 4 3 -2 6 -13 5 -11 0 -14 -3 -6 -6z"/>
<path d="M2451 2874 c0 -11 3 -14 6 -6 3 7 2 16 -1 19 -3 4 -6 -2 -5 -13z"/>
<path d="M2656 2875 c-3 -9 -6 -22 -5 -28 0 -7 5 -1 10 12 5 13 8 26 5 28 -2
2 -6 -3 -10 -12z"/>
<path d="M1292 2864 c9 -9 21 -15 27 -13 6 2 -2 10 -17 17 -25 11 -25 11 -10
-4z"/>
<path d="M680 2855 c-14 -8 -20 -14 -15 -14 6 0 21 6 35 14 14 8 21 14 15 14
-5 0 -21 -6 -35 -14z"/>
<path d="M3171 2850 c-12 -11 -27 -18 -31 -15 -4 3 -11 -2 -14 -10 -5 -13 -2
-14 22 -1 16 8 34 22 41 30 18 21 11 20 -18 -4z"/>
<path d="M3366 2854 c-5 -14 -4 -15 8 -5 11 10 15 8 19 -6 4 -14 5 -13 6 5 1
26 -24 30 -33 6z"/>
<path d="M2500 2819 c-25 -17 -49 -36 -55 -42 -5 -6 1 -3 15 7 14 9 37 22 52
29 15 6 30 17 32 24 7 17 8 17 -44 -18z"/>
<path d="M2750 2835 c-7 -8 -24 -21 -38 -28 -27 -13 -61 -57 -44 -57 5 0 12 9
15 20 3 11 16 24 29 29 21 8 68 51 56 51 -3 0 -11 -7 -18 -15z"/>
<path d="M3302 2838 c-7 -7 -12 -16 -12 -22 0 -5 6 -2 13 9 9 11 19 15 27 10
9 -5 11 -4 6 3 -9 15 -19 15 -34 0z"/>
<path d="M1280 2833 c8 -3 29 -15 45 -25 l30 -20 -30 26 c-16 14 -37 26 -45
25 -13 0 -13 -1 0 -6z"/>
<path d="M2792 2820 c-17 -27 -15 -35 4 -16 8 9 14 21 12 26 -2 6 -9 1 -16
-10z"/>
<path d="M603 2785 c0 -22 2 -30 4 -17 2 12 2 30 0 40 -3 9 -5 -1 -4 -23z"/>
<path d="M1225 2783 c-19 -28 -12 -53 16 -61 8 -2 5 3 -6 11 -19 15 -20 16 -2
46 22 38 16 41 -8 4z"/>
<path d="M2403 2770 l-23 -28 23 11 c13 6 24 19 24 29 2 22 3 23 -24 -12z"/>
<path d="M2573 2755 c0 -22 2 -30 4 -17 2 12 2 30 0 40 -3 9 -5 -1 -4 -23z"/>
<path d="M1350 2773 c0 -15 18 -35 27 -32 5 2 1 12 -9 22 -10 9 -18 14 -18 10z"/>
<path d="M1456 2765 c10 -8 26 -14 34 -15 8 0 2 7 -14 15 -36 19 -45 19 -20 0z"/>
<path d="M3248 2763 c6 -2 18 -2 25 0 6 3 1 5 -13 5 -14 0 -19 -2 -12 -5z"/>
<path d="M1416 2743 c-6 -14 -5 -15 5 -6 7 7 10 15 7 18 -3 3 -9 -2 -12 -12z"/>
<path d="M3300 2748 c14 -17 60 -20 53 -2 -3 10 -10 11 -22 4 -11 -6 -22 -5
-29 0 -9 7 -9 7 -2 -2z"/>
<path d="M1527 2735 c12 -8 23 -27 25 -42 2 -20 11 -30 30 -37 15 -5 31 -7 34
-3 8 8 -23 57 -36 57 -6 0 -1 -9 11 -21 24 -24 20 -34 -10 -24 -16 5 -21 15
-21 41 0 19 -4 33 -9 29 -5 -3 -12 -1 -16 5 -3 5 -11 10 -18 10 -6 0 -2 -7 10
-15z"/>
<path d="M1597 2740 c9 -8 100 -24 92 -15 -3 3 -27 9 -53 14 -26 5 -44 5 -39
1z"/>
<path d="M2293 2735 c-20 -14 -41 -61 -22 -49 5 3 9 12 9 19 0 8 12 21 28 29
15 8 22 15 17 16 -6 0 -20 -7 -32 -15z"/>
<path d="M2640 2725 c-7 -9 -8 -15 -2 -15 5 0 12 7 16 15 3 8 4 15 2 15 -2 0
-9 -7 -16 -15z"/>
<path d="M1170 2716 c0 -2 7 -7 16 -10 8 -3 12 -2 9 4 -6 10 -25 14 -25 6z"/>
<path d="M2585 2710 c-4 -6 -10 -8 -15 -5 -10 6 -70 -61 -70 -78 0 -7 9 2 19
19 22 36 48 57 38 31 -9 -24 -4 -21 21 13 13 17 20 30 18 30 -3 0 -8 -5 -11
-10z"/>
<path d="M1150 2706 c0 -14 61 -86 73 -86 6 0 3 6 -6 13 -9 6 -28 27 -42 46
-14 19 -25 31 -25 27z"/>
<path d="M1217 2689 c7 -7 15 -10 18 -7 3 3 -2 9 -12 12 -14 6 -15 5 -6 -5z"/>
<path d="M2274 2668 l-19 -23 25 20 c14 11 27 21 29 22 2 2 0 3 -6 3 -5 0 -18
-10 -29 -22z"/>
<path d="M592 2655 c0 -16 2 -22 5 -12 2 9 2 23 0 30 -3 6 -5 -1 -5 -18z"/>
<path d="M2416 2671 c-19 -7 -19 -8 0 -13 13 -3 21 0 21 8 0 8 -1 14 -1 13 -1
0 -10 -4 -20 -8z"/>
<path d="M2472 2657 c-6 -7 -7 -19 -3 -26 6 -9 10 -5 13 13 6 30 5 31 -10 13z"/>
<path d="M3177 2659 c7 -7 15 -10 18 -7 3 3 -2 9 -12 12 -14 6 -15 5 -6 -5z"/>
<path d="M1184 2619 c14 -11 32 -18 39 -16 7 4 6 6 -4 6 -9 1 -22 8 -29 16 -7
8 -17 15 -23 15 -5 0 2 -9 17 -21z"/>
<path d="M2294 2621 c3 -5 -1 -14 -9 -21 -8 -7 -15 -17 -15 -22 0 -5 11 3 25
18 29 32 30 34 9 34 -8 0 -13 -4 -10 -9z"/>
<path d="M2820 2626 c0 -2 7 -7 16 -10 8 -3 12 -2 9 4 -6 10 -25 14 -25 6z"/>
<path d="M2489 2593 c-13 -16 -12 -17 4 -4 16 13 21 21 13 21 -2 0 -10 -8 -17
-17z"/>
<path d="M2336 2581 c-16 -17 -15 -19 11 -36 l28 -18 -19 21 c-15 18 -16 24
-6 37 18 22 6 19 -14 -4z"/>
<path d="M2459 2543 c-22 -46 -22 -50 1 -15 13 18 20 35 18 37 -3 3 -11 -7
-19 -22z"/>
<path d="M2250 2550 c-13 -8 -12 -10 3 -10 9 0 17 5 17 10 0 12 -1 12 -20 0z"/>
<path d="M2521 2534 c0 -11 3 -14 6 -6 3 7 2 16 -1 19 -3 4 -6 -2 -5 -13z"/>
<path d="M2372 2500 c0 -14 2 -19 5 -12 2 6 2 18 0 25 -3 6 -5 1 -5 -13z"/>
<path d="M1481 2494 c0 -11 3 -14 6 -6 3 7 2 16 -1 19 -3 4 -6 -2 -5 -13z"/>
<path d="M2632 2485 c0 -16 2 -22 5 -12 2 9 2 23 0 30 -3 6 -5 -1 -5 -18z"/>
<path d="M2592 2475 c-17 -37 -14 -45 4 -12 9 16 14 31 11 33 -2 2 -9 -7 -15
-21z"/>
<path d="M2441 2474 c0 -11 3 -14 6 -6 3 7 2 16 -1 19 -3 4 -6 -2 -5 -13z"/>
<path d="M2340 2469 c0 -5 5 -7 10 -4 6 3 10 8 10 11 0 2 -4 4 -10 4 -5 0 -10
-5 -10 -11z"/>
<path d="M2895 2450 c3 -5 8 -10 11 -10 2 0 4 5 4 10 0 6 -5 10 -11 10 -5 0
-7 -4 -4 -10z"/>
<path d="M2357 2409 c26 -26 34 -29 49 -20 18 11 17 12 -2 6 -16 -4 -28 1 -42
20 -11 14 -24 25 -28 25 -5 0 5 -14 23 -31z"/>
<path d="M2416 2333 c-6 -14 -5 -15 5 -6 7 7 10 15 7 18 -3 3 -9 -2 -12 -12z"/>
<path d="M1990 2270 c0 -5 5 -10 11 -10 5 0 7 5 4 10 -3 6 -8 10 -11 10 -2 0
-4 -4 -4 -10z"/>
<path d="M3620 1690 c0 -63 2 -71 18 -68 14 3 17 14 17 68 0 54 -3 65 -17 68
-16 3 -18 -5 -18 -68z"/>
<path d="M970 1675 c0 -58 2 -66 18 -63 14 3 17 14 17 63 0 49 -3 60 -17 63
-16 3 -18 -5 -18 -63z"/>
<path d="M3042 1678 c2 -48 7 -63 18 -63 11 0 16 15 18 63 3 57 1 62 -18 62
-19 0 -21 -5 -18 -62z"/>
<path d="M1260 1675 c0 -58 2 -66 18 -63 14 3 17 14 17 63 0 49 -3 60 -17 63
-16 3 -18 -5 -18 -63z"/>
<path d="M1374 1135 c-18 -44 -18 -65 0 -65 15 0 19 10 31 68 9 44 -12 42 -31
-3z"/>
<path d="M1804 1135 c-18 -44 -18 -65 0 -65 15 0 19 10 31 68 9 44 -12 42 -31
-3z"/>
<path d="M1956 1133 c-3 -21 -6 -47 -6 -58 0 -37 31 8 37 54 4 32 2 41 -9 41
-10 0 -18 -14 -22 -37z"/>
<path d="M2134 1117 c4 -19 1 -29 -10 -35 -11 -6 -13 -11 -5 -16 6 -4 16 -4
21 -1 14 8 13 62 -1 71 -8 5 -10 -1 -5 -19z"/>
<path d="M1742 1090 c0 -14 2 -19 5 -12 2 6 2 18 0 25 -3 6 -5 1 -5 -13z"/>
<path d="M2386 1206 c-20 -31 -20 -36 -1 -36 8 0 17 11 21 25 9 36 0 40 -20
11z"/>
<path d="M2516 1153 c-17 -61 -17 -83 -2 -83 14 0 36 54 36 88 0 19 -28 14
-34 -5z"/>
<path d="M2646 1153 c-17 -61 -17 -83 -2 -83 14 0 36 54 36 88 0 19 -28 14
-34 -5z"/>
</g>
</svg>
